<svg width="225" height="232" viewBox="0 0 225 232" fill="none" xmlns="http://www.w3.org/2000/svg">
<path d="M160.827 107.557L120.9 101.591C120.642 101.591 120.556 101.831 120.556 102.061V136.031C120.556 139.284 97.8716 147.734 97.65 147.304L97.6224 150.899C97.6209 151.569 98.2094 152.162 98.9599 152.162H99.4689L132.945 158.378C134.498 158.378 136.033 158.031 137.439 157.441L155.844 149.692C159.158 148.296 161.247 145.3 161.247 142.032V108.029C161.247 107.798 161.085 107.558 160.827 107.558V107.557Z" fill="black"/>
<path d="M116.513 99.6127V133.589C116.513 136.938 114.358 139.99 110.971 141.436L98.5546 146.736C97.743 147.081 98.0196 148.169 98.9184 148.169L133.032 154.386C134.567 154.386 136.081 154.083 137.468 153.499L151.225 147.708C154.636 146.271 156.813 143.208 156.813 139.84V105.829C156.813 105.69 156.686 105.577 156.53 105.577L116.793 99.3605C116.637 99.3605 116.51 99.4736 116.51 99.6127H116.513Z" fill="white"/>
<path d="M133.034 154.724C133.014 154.724 132.992 154.722 132.973 154.718L98.8865 148.507C98.324 148.493 97.8623 148.131 97.7569 147.618C97.6545 147.118 97.922 146.639 98.4218 146.425L110.838 141.126C114.08 139.743 116.176 136.785 116.176 133.59V99.6143C116.176 99.2887 116.454 99.0243 116.796 99.0243C116.813 99.0243 116.831 99.0243 116.848 99.0289L156.564 105.241C156.891 105.256 157.154 105.514 157.154 105.831V139.842C157.154 143.327 154.879 146.538 151.358 148.02L137.601 153.811C136.181 154.409 134.602 154.725 133.034 154.725V154.724ZM116.851 99.7121V133.589C116.851 137.054 114.595 140.256 111.104 141.747L98.6878 147.046C98.4829 147.133 98.382 147.297 98.4203 147.48C98.4539 147.642 98.6037 147.83 98.9201 147.83C98.94 147.83 98.9614 147.832 98.9812 147.836L133.066 154.047C134.535 154.042 136.013 153.745 137.341 153.186L151.098 147.394C154.367 146.017 156.48 143.052 156.48 139.84V105.912L116.854 99.7137L116.851 99.7121Z" fill="black"/>
<path d="M222.894 134.784L218.44 138.942L53.2844 110.361L55.0545 3.45021L60.3982 0.581168C61.3795 0.0584123 62.5075 -0.118898 63.602 0.0782818L220.358 28.3591C222.711 28.784 224.421 30.8322 224.421 33.2228L224.455 131.177C224.455 132.543 223.889 133.849 222.893 134.783L222.894 134.784Z" fill="black"/>
<path d="M214.614 139.532L56.5235 110.986C54.5578 110.632 53.1287 108.921 53.1287 106.924V7.5313C53.1287 4.95726 55.4581 3.01145 57.9909 3.46848L216.082 32.0137C218.047 32.3683 219.477 34.0787 219.477 36.0765V135.467C219.477 138.041 217.147 139.987 214.614 139.53V139.532Z" fill="white"/>
<path d="M215.351 139.935C215.085 139.935 214.819 139.912 214.553 139.863L56.4622 111.318C54.3345 110.935 52.7892 109.085 52.7892 106.922V7.53132C52.7892 6.20456 53.3731 4.95423 54.3911 4.10437C55.4091 3.25298 56.742 2.89989 58.0488 3.13681L216.14 31.682C218.267 32.0657 219.813 33.9152 219.813 36.078V135.47C219.813 136.797 219.229 138.047 218.211 138.897C217.399 139.574 216.389 139.937 215.351 139.937V139.935ZM214.674 139.198C215.782 139.399 216.913 139.099 217.777 138.378C218.64 137.656 219.137 136.595 219.137 135.469V36.0765C219.137 34.2423 217.827 32.6725 216.02 32.3469L57.9296 3.80172C56.8214 3.60148 55.6903 3.90107 54.8267 4.62254C53.9631 5.344 53.4663 6.4048 53.4663 7.53132V106.924C53.4663 108.758 54.7763 110.328 56.583 110.653L214.674 139.198Z" fill="black"/>
<path d="M189.456 116.959L80.2905 97.2467C79.6363 97.129 79.1609 96.5589 79.1609 95.894V26.1749C79.1609 25.3189 79.9359 24.6708 80.7796 24.8221L189.945 44.5325C190.6 44.6502 191.075 45.2203 191.075 45.8852V115.604C191.075 116.46 190.3 117.108 189.456 116.957V116.959Z" fill="white"/>
<path d="M189.702 117.319C189.6 117.319 189.498 117.31 189.397 117.292L80.2309 97.5799C79.4147 97.4331 78.8231 96.7239 78.8231 95.8939V26.1748C78.8231 25.6658 79.0478 25.1874 79.4376 24.8603C79.8274 24.5347 80.3379 24.3987 80.8392 24.4889L190.005 44.2007C190.821 44.3475 191.413 45.0567 191.413 45.8867V115.606C191.413 116.115 191.188 116.593 190.798 116.92C190.488 117.18 190.1 117.319 189.702 117.319ZM189.517 116.625C189.822 116.68 190.13 116.598 190.366 116.401C190.603 116.203 190.737 115.913 190.737 115.606V45.8867C190.737 45.3853 190.379 44.9558 189.886 44.8672L80.72 25.1553C80.4174 25.1003 80.1086 25.1828 79.8717 25.38C79.6348 25.5772 79.5003 25.8676 79.5003 26.1748V95.8939C79.5003 96.3953 79.8579 96.8248 80.3516 96.9134L189.517 116.625Z" fill="black"/>
<path d="M181.933 60.3236C181.913 60.3236 181.893 60.3221 181.872 60.3175L88.034 43.3738C87.8506 43.3402 87.7283 43.1644 87.7619 42.9809C87.7955 42.7975 87.9698 42.6752 88.1547 42.7089L181.992 59.6526C182.176 59.6862 182.298 59.862 182.266 60.0454C182.237 60.209 182.093 60.3236 181.933 60.3236Z" fill="black"/>
<path d="M170.067 64.9244C170.047 64.9244 170.027 64.9228 170.006 64.9183L88.034 50.1176C87.8506 50.0839 87.7283 49.9081 87.7619 49.7247C87.7955 49.5413 87.9698 49.419 88.1547 49.4526L170.126 64.2534C170.31 64.287 170.432 64.4628 170.4 64.6462C170.371 64.8097 170.227 64.9244 170.067 64.9244Z" fill="black"/>
<path d="M181.933 73.8113C181.913 73.8113 181.893 73.8098 181.872 73.8052L88.3061 56.9455C88.1226 56.9119 88.0004 56.7361 88.0325 56.5527C88.0661 56.3693 88.2403 56.247 88.4253 56.2791L181.991 73.1387C182.174 73.1724 182.297 73.3481 182.264 73.5316C182.235 73.6951 182.092 73.8098 181.931 73.8098L181.933 73.8113Z" fill="black"/>
<path d="M181.933 80.5552C181.913 80.5552 181.893 80.5536 181.872 80.5491L155.376 75.7648C155.193 75.7312 155.071 75.5554 155.103 75.3719C155.136 75.1885 155.309 75.0662 155.495 75.0999L181.991 79.8841C182.174 79.9178 182.297 80.0936 182.265 80.277C182.235 80.4405 182.092 80.5552 181.931 80.5552H181.933Z" fill="black"/>
<path d="M126.212 70.4943C126.192 70.4943 126.172 70.4928 126.151 70.4882L88.034 63.6053C87.8506 63.5717 87.7283 63.3959 87.7619 63.2125C87.7955 63.029 87.9698 62.9068 88.1547 62.9404L126.272 69.8233C126.455 69.857 126.577 70.0327 126.544 70.2162C126.515 70.3797 126.371 70.4943 126.21 70.4943H126.212Z" fill="black"/>
<path d="M181.933 87.299C181.913 87.299 181.893 87.2975 181.872 87.2929L163.225 83.9255C163.042 83.8919 162.92 83.7161 162.952 83.5327C162.985 83.3493 163.158 83.227 163.344 83.2606L181.991 86.628C182.174 86.6616 182.297 86.8374 182.265 87.0208C182.236 87.1844 182.092 87.299 181.931 87.299H181.933Z" fill="black"/>
<path d="M146.171 80.8409C146.152 80.8409 146.132 80.8394 146.11 80.8348L88.034 70.3491C87.8506 70.3155 87.7283 70.1397 87.7619 69.9563C87.7955 69.7729 87.9698 69.6506 88.1547 69.6842L146.231 80.1699C146.414 80.2035 146.537 80.3793 146.505 80.5627C146.476 80.7263 146.332 80.8409 146.171 80.8409Z" fill="black"/>
<path d="M181.933 94.0414C181.913 94.0414 181.893 94.0398 181.872 94.0353L87.7007 76.9494C87.5173 76.9158 87.395 76.74 87.4287 76.5566C87.4623 76.3732 87.6365 76.2509 87.8215 76.2845L181.992 93.3704C182.176 93.404 182.298 93.5798 182.264 93.7632C182.235 93.9267 182.092 94.0414 181.931 94.0414H181.933Z" fill="black"/>
<path d="M162.126 97.21C162.106 97.21 162.086 97.2085 162.065 97.2039L88.0324 83.8369C87.849 83.8033 87.7267 83.6275 87.7603 83.4441C87.794 83.2607 87.9682 83.1384 88.1532 83.172L162.186 96.539C162.369 96.5726 162.491 96.7484 162.459 96.9318C162.43 97.0953 162.287 97.21 162.126 97.21Z" fill="black"/>
<path d="M184.164 174.41C191.727 172.39 196.901 167.173 195.722 162.757C194.543 158.34 187.456 156.397 179.894 158.416C172.332 160.435 167.157 165.652 168.336 170.069C169.516 174.486 176.602 176.429 184.164 174.41Z" fill="white"/>
<path d="M178.321 175.545C173.092 175.545 168.907 173.54 168.005 170.162C167.403 167.904 168.321 165.4 170.593 163.111C172.817 160.868 176.088 159.086 179.802 158.096C187.532 156.032 194.818 158.086 196.044 162.677C197.268 167.267 191.977 172.679 184.247 174.743C182.206 175.287 180.196 175.545 178.322 175.545H178.321ZM185.786 157.961C183.955 157.961 181.983 158.215 179.976 158.75C176.377 159.711 173.214 161.429 171.073 163.589C168.979 165.702 168.121 167.974 168.659 169.989C169.789 174.218 176.704 176.057 184.073 174.09C191.443 172.123 196.52 167.082 195.391 162.852C194.569 159.774 190.684 157.963 185.788 157.963L185.786 157.961Z" fill="black"/>
<path d="M171.472 171.345C172.335 170.669 173.367 170.235 174.458 170.093C177.818 169.657 178.353 169.3 185.089 165.957C190.13 163.455 195.962 166.483 198.933 162.229C200.66 159.757 192.788 150.143 180.494 152.925C173.497 154.508 174.487 158.051 165.302 163.49C165.302 163.49 127.441 187.135 119.522 179.39C110.734 170.795 102.988 157.324 102.988 157.324L80.1071 185.01C80.1071 185.01 109.031 204.812 126.34 204.077C136.47 203.647 171.472 171.345 171.472 171.345Z" fill="white"/>
<path d="M125.399 204.433C108.085 204.433 80.2003 185.482 79.916 185.288C79.838 185.235 79.786 185.151 79.7723 185.056C79.7585 184.961 79.786 184.866 79.8472 184.793L102.728 157.107C102.798 157.021 102.907 156.975 103.017 156.984C103.127 156.994 103.226 157.056 103.281 157.153C103.359 157.287 111.107 170.682 119.758 179.145C127.397 186.616 164.748 163.436 165.124 163.201C169.27 160.746 171.332 158.675 172.989 157.012C175.033 154.961 176.51 153.478 180.421 152.593C190.025 150.419 196.425 155.592 198.467 158.629C199.509 160.179 199.787 161.596 199.211 162.421C197.42 164.986 194.667 165.049 191.752 165.115C189.583 165.164 187.341 165.216 185.239 166.258L183.943 166.903C178.4 169.66 177.688 170.015 174.501 170.428C173.479 170.561 172.506 170.966 171.69 171.602C170.114 173.055 136.467 203.984 126.353 204.413C126.038 204.427 125.72 204.433 125.397 204.433H125.399ZM80.6053 184.937C83.6991 187.005 109.267 203.756 125.388 203.757C125.704 203.757 126.015 203.751 126.325 203.737C136.216 203.317 170.892 171.418 171.242 171.096C171.248 171.09 171.256 171.084 171.264 171.077C172.178 170.362 173.268 169.907 174.415 169.757C177.489 169.358 178.072 169.069 183.643 166.298L184.939 165.653C187.176 164.543 189.494 164.489 191.737 164.439C194.594 164.373 197.061 164.318 198.656 162.035C199.054 161.466 198.759 160.278 197.904 159.008C195.952 156.102 189.815 151.161 180.569 153.253C176.85 154.096 175.432 155.519 173.468 157.49C171.783 159.181 169.688 161.286 165.474 163.78C164.153 164.606 137.292 181.271 124.457 181.273C122.25 181.273 120.46 180.781 119.283 179.63C111.431 171.95 104.331 160.26 102.939 157.909L80.6038 184.935L80.6053 184.937Z" fill="black"/>
<path d="M65.1229 115.129C52.0784 110.906 30.7219 107.746 22.1698 108.801C12.6731 109.972 1.93824 120.567 8.99085 163.027C10.3726 171.346 11.3998 178.858 12.8626 185.516C21.6853 198.33 33.3892 209.281 48.9129 217.242C55.7759 220.761 83.8702 228.894 117.275 231.02C102.387 215.415 97.7401 202.767 96.56 198.771C96.3934 198.206 96.9299 197.689 97.4894 197.874L99.1387 198.421C100.514 198.878 102.026 198.349 102.813 197.131C106.875 190.847 118.187 171.484 112.801 158.25C111.121 154.125 87.664 122.424 65.1244 115.129H65.1229Z" fill="black"/>
<path d="M65.7251 67.3624C65.7251 67.3624 68.8509 72.0474 69.042 75.9191C69.0924 76.9432 69.5188 80.2158 72.0394 83.7941C72.2824 84.1395 72.2289 84.6088 71.9095 84.8931L69.5005 87.0407C69.3339 87.1889 69.2391 87.3953 69.2376 87.6154C69.23 88.9819 69.1872 94.0321 69.0236 94.9722C68.8325 96.0635 67.9567 97.0265 67.5211 97.2619C66.3716 97.8825 61.3902 97.2482 61.3902 97.2482C61.3902 97.2482 60.0542 97.375 57.4343 104.466C54.605 112.124 60.473 115.017 60.473 115.017C62.6772 116.168 62.7184 117.281 60.334 118.041C52.112 120.661 35.1133 122.576 26.5306 112.942C26.0415 112.391 26.2861 111.511 27.0029 111.298C48.8119 104.866 38.418 86.3299 38.8796 86.2076C40.0581 85.8958 46.8325 78.7576 50.8021 76.7262C53.5076 75.3413 56.7893 77.3452 58.9904 75.2496L65.7266 67.3578L65.7251 67.3624Z" fill="white"/>
<path d="M46.1706 120.505C38.9698 120.505 31.2599 118.764 26.2769 113.169C25.9681 112.822 25.8596 112.35 25.988 111.902C26.1149 111.454 26.4588 111.109 26.9066 110.977C33.0437 109.168 37.1753 106.211 39.1868 102.191C42.1751 96.2195 39.65 89.4282 38.82 87.1951C38.5295 86.4155 38.4699 86.2535 38.5678 86.064C38.6121 85.9799 38.6992 85.908 38.7925 85.8836C39.199 85.7766 40.807 84.3352 42.3616 82.9412C44.9937 80.5811 48.2708 77.6448 50.6477 76.4281C51.9561 75.7586 53.3532 75.8305 54.7029 75.8993C56.2176 75.9772 57.6483 76.0506 58.7443 75.0188L65.4698 67.1408C65.5386 67.0598 65.6379 67.0155 65.7465 67.0231C65.8519 67.0292 65.9498 67.0843 66.0078 67.1729C66.1378 67.367 69.1872 71.9801 69.3813 75.9008C69.4134 76.5351 69.7008 79.8826 72.3176 83.5985C72.66 84.083 72.582 84.7494 72.1357 85.1453L69.7267 87.2929C69.6304 87.3785 69.5769 87.4931 69.5769 87.6169C69.5678 89.1134 69.525 94.0704 69.3568 95.0303C69.1551 96.1859 68.238 97.2589 67.6816 97.5585C66.5184 98.1867 62.2232 97.6915 61.4269 97.5936C61.2022 97.7098 59.9625 98.5963 57.7507 104.582C55.0651 111.85 60.3936 114.6 60.6228 114.713C61.9206 115.39 62.5182 116.055 62.4586 116.748C62.4005 117.419 61.7387 117.947 60.4364 118.363C56.9727 119.467 51.7238 120.502 46.1706 120.502V120.505ZM39.2541 86.4125C39.303 86.5577 39.3794 86.761 39.4528 86.9612C40.3088 89.2616 42.9103 96.2608 39.7906 102.496C37.6919 106.69 33.4212 109.762 27.0962 111.627C26.8684 111.694 26.7018 111.862 26.6376 112.089C26.5734 112.312 26.6285 112.547 26.7813 112.72C35.3777 122.368 52.4193 120.21 60.23 117.721C61.5889 117.289 61.7692 116.858 61.783 116.693C61.7983 116.518 61.6852 116.035 60.3156 115.32C60.2606 115.292 54.2153 112.203 57.1164 104.351C59.6155 97.586 60.9943 96.9486 61.3581 96.9134C61.3825 96.9104 61.4085 96.9119 61.433 96.9134C63.3176 97.1534 66.5933 97.3796 67.3606 96.9639C67.7351 96.7621 68.5223 95.8786 68.6904 94.9141C68.8173 94.1927 68.8815 90.6694 68.8998 87.6124C68.9013 87.3005 69.0389 86.9994 69.2758 86.7885L71.6848 84.6409C71.8759 84.4697 71.9095 84.1961 71.7627 83.9882C69.0389 80.1211 68.7378 76.6009 68.7042 75.9344C68.5498 72.8269 66.4129 69.1126 65.6838 67.9295L59.2441 75.4728C59.2365 75.482 59.2288 75.4896 59.2197 75.4988C57.9112 76.743 56.2604 76.6574 54.6647 76.5764C53.4036 76.5122 52.0983 76.445 50.9519 77.0319C48.653 78.2073 45.414 81.1115 42.8094 83.4456C40.9798 85.0857 39.8746 86.0655 39.2525 86.4125H39.2541Z" fill="black"/>
<path d="M71.83 83.5649C71.6542 83.5649 71.5059 83.4289 71.4922 83.2516C71.4784 83.0651 71.619 82.9031 71.8055 82.8893C72.5499 82.8358 73.12 82.5362 73.548 81.9722C74.8075 80.3122 74.3918 76.9388 74.2236 75.8902L57.1531 78.5697C56.9696 78.5987 56.7954 78.4734 56.7663 78.2884C56.7373 78.1035 56.8642 77.9308 57.0476 77.9017L74.4468 75.1702C74.6272 75.1412 74.7953 75.2604 74.8305 75.4377C74.8702 75.6303 75.7674 80.167 74.0876 82.3818C73.5434 83.0987 72.7914 83.4977 71.8544 83.5649C71.8468 83.5649 71.8376 83.5649 71.83 83.5649Z" fill="black"/>
<path d="M57.0369 85.6054C55.6001 85.6054 53.344 85.0765 52.1212 82.0699C51.3691 80.225 51.6152 78.5864 52.7784 77.6907C53.9875 76.7583 55.8477 76.8714 57.3044 77.9643C57.8501 78.3739 58.567 79.5173 58.648 79.6472C58.7458 79.8062 58.6969 80.0141 58.5379 80.1134C58.379 80.2128 58.1711 80.1623 58.0717 80.0049C57.873 79.6839 57.2738 78.7897 56.8978 78.5069C55.6842 77.5959 54.1602 77.4813 53.1927 78.2287C52.271 78.9395 52.1089 80.2479 52.7479 81.8177C54.3926 85.8576 58.0121 84.8473 58.165 84.8029C58.3453 84.751 58.5318 84.8534 58.5853 85.0322C58.6388 85.211 58.5364 85.3991 58.3576 85.4526C58.3423 85.4571 57.8073 85.61 57.0369 85.61V85.6054Z" fill="black"/>
<path d="M72.1419 55.761C70.543 53.08 68.8234 50.778 63.5684 49.7432C59.9702 49.034 54.1022 51.6905 51.2148 54.7552C50.9733 55.0105 50.5897 55.0197 50.3894 54.7659C49.7689 53.9833 48.2954 52.2133 46.99 52.0574C43.2115 51.608 39.3413 56.5039 37.9656 59.0213C36.9613 60.8601 35.2677 65.0177 34.4133 69.8494C34.3598 70.1521 34.0847 70.3752 33.7866 70.3477C32.6478 70.2392 30.3658 70.2438 28.3389 71.7433C24.7255 74.4166 25.1168 78.3343 25.1596 78.8127C25.6503 84.3933 31.3226 88.5158 35.6224 90.752C38.5403 92.2698 39.6363 92.4869 41.3528 92.8843C41.4521 92.9072 41.5561 92.8996 41.6539 92.8675C43.1733 93.0906 45.7534 93.2053 48.627 92.2087C53.1943 90.6236 52.8488 83.0467 52.8488 83.0467L52.2741 81.6175C51.9256 80.7524 51.8767 79.7756 52.2298 78.912C53.3074 76.2769 57.2846 78.2563 57.4329 78.2257C64.9165 76.6712 67.5594 74.4808 68.9182 72.989C73.7896 67.6422 76.0136 62.2526 72.1434 55.7625L72.1419 55.761Z" fill="black"/>
<path d="M73.0804 171.114C73.062 171.111 73.0437 171.11 73.0253 171.107L56.7313 169.823C41.796 168.646 27.3897 163.754 14.8405 155.578C14.7427 155.516 14.6464 155.451 14.547 155.389C12.5798 154.12 10.1739 153.723 7.90253 154.293L5.68922 154.849C4.29368 155.199 3.0036 155.892 1.95656 156.878C1.71353 157.105 1.55762 157.28 1.55762 157.339L3.65934 169.451C12.994 189.166 27.2261 206.124 48.9129 217.245C53.3899 219.541 66.9082 223.801 85.0426 227.077C85.012 222.697 84.9692 216.66 84.9692 216.652V185.631C84.9692 178.581 79.9939 172.51 73.0804 171.117V171.114Z" fill="black"/>
<path d="M85.0425 227.413C85.0226 227.413 85.0028 227.411 84.9829 227.407C67.7656 224.298 53.7276 220.091 48.7584 217.543C38.3522 212.207 29.1505 205.226 21.4054 196.797C14.3253 189.09 8.25247 179.937 3.35355 169.593C3.33979 169.566 3.33062 169.537 3.32603 169.506L1.22431 157.394C1.22125 157.376 1.21973 157.356 1.21973 157.338C1.21973 157.177 1.29157 157.037 1.72567 156.628C2.80175 155.615 4.14532 154.886 5.60812 154.518L7.82143 153.961C10.1738 153.371 12.6913 153.785 14.7304 155.101L15.0238 155.292C27.4752 163.406 41.906 168.312 56.7556 169.483L73.1246 170.778C73.1246 170.778 73.1384 170.779 73.146 170.781C80.1925 172.201 85.307 178.444 85.307 185.626V216.649L85.3803 227.07C85.3803 227.171 85.3375 227.268 85.2596 227.332C85.1984 227.384 85.1205 227.411 85.041 227.411L85.0425 227.413ZM3.98483 169.346C14.1541 190.802 29.3232 206.816 49.0672 216.941C53.0214 218.969 65.7541 223.219 84.7017 226.667L84.6451 218.63C84.6359 217.43 84.6313 216.651 84.6313 216.649V185.626C84.6313 178.768 79.7508 172.806 73.0237 171.446L72.9794 171.44L56.7052 170.157C41.744 168.977 27.2031 164.034 14.657 155.858L14.365 155.668C12.4834 154.455 10.1585 154.071 7.98651 154.615L5.7732 155.172C4.42199 155.511 3.18235 156.185 2.18881 157.119C2.03749 157.261 1.95495 157.35 1.91215 157.399L3.98483 169.343V169.346Z" fill="white"/>
<path d="M50.6645 226.664C25.9131 221.731 15.3877 215.801 7.80618 211.353C2.9684 208.514 0 203.325 0 197.72V160.832C0 156.939 4.20344 154.495 7.59066 156.417C8.83946 157.127 10.0317 157.865 11.1857 158.62C23.6692 166.776 38.0205 171.629 52.89 172.802L69.3125 174.096C76.2413 175.478 81.2289 181.556 81.2289 188.616C81.2289 188.616 81.1005 229.206 80.6037 229.538C78.3415 231.045 50.663 226.664 50.663 226.664H50.6645Z" fill="white"/>
<path d="M69.6198 224.166C69.5938 224.166 69.5663 224.163 69.5403 224.157C64.7682 222.998 60.2576 221.744 56.4974 220.525C53.075 219.417 50.4001 218.387 48.7585 217.545C46.0851 216.174 43.4621 214.68 40.9645 213.104C24.9181 202.985 12.2894 188.4 3.42852 169.755C3.34903 169.587 3.41935 169.385 3.58901 169.304C3.75868 169.225 3.95891 169.295 4.03993 169.465C12.8442 187.992 25.3888 202.483 41.3268 212.531C43.8076 214.095 46.4122 215.579 49.0688 216.941C50.6554 217.754 53.367 218.798 56.7068 219.88C60.4517 221.092 64.944 222.344 69.7008 223.498C69.8827 223.543 69.9943 223.725 69.9499 223.906C69.9117 224.061 69.7742 224.165 69.6213 224.165L69.6198 224.166Z" fill="black"/>
</svg>
